<?xml version="1.0" standalone="no"?><!DOCTYPE svg PUBLIC "-//W3C//DTD SVG 1.1//EN" "http://www.w3.org/Graphics/SVG/1.1/DTD/svg11.dtd"><svg t="1711440932676" class="icon" viewBox="0 0 1024 1024" version="1.1" xmlns="http://www.w3.org/2000/svg" p-id="36706" xmlns:xlink="http://www.w3.org/1999/xlink" width="300" height="300"><path d="M342.9 747.5c33.1 0 60 26.9 60 60s-26.9 60-60 60c-22.3 0-41.7-12.1-52-30.1h-7.2c-45.5 0-88.5-12.1-124-35.9-43.3-29.1-75-71.5-87.9-119.2-13.3-49.6-6.8-104.1 17.6-150 23.7-44.5 63.6-79 111.2-96.3 2.7-1 5.2-1.6 9.8-2.5 3.5-0.7 4.3-0.8 5-1 9.1-2 12.9-4.3 14.2-9.4 1.8-6.9 3.2-14.2 4.7-23.9 0.4-2.5 0.7-4.3 1.4-9 3.6-24 5.8-34.9 10.8-48 21-54.8 57.1-101.4 104.9-135.1 47.5-33.5 105.4-51.7 163-51.1 102.4 1.2 199.6 58.7 247.8 147.9 27.6 51.1 39.7 110.5 33 166.3-0.1 0.5-0.1 1.1-0.3 2.2-0.2 1.4-0.3 2.3-0.4 3.2-0.4 3.9-0.5 6.6-0.3 8.3 1.9 0.5 4.1 0.8 7.8 1.2 5 0.5 6.6 0.6 8.3 0.9 27.7 4.3 54.7 15.8 77.1 33 25.5 19.5 44.8 43.1 56.3 70.2 12.3 29 17.5 59.6 14.3 88.5-3.1 27.4-11.1 52.2-24.6 73.7-13.7 21.8-31.8 40.5-53.3 54.9-31.3 21-68.7 31.2-109.9 31.2-170.4-0.2-256.5-0.3-258.3-0.3v-60.7h264.6c5.2 0 18.6-0.2 26.6-2.8 52-10.5 68.3-40.4 71-43.6 1-1.4 1.5-2 2-2.8 1.6-2.3 2.9-4.2 4.1-6.1 2.8-4.5 5.2-8.7 7.2-12.8 0.6-1.2 1.1-2.2 1.8-3.7 1-2.6 1.8-4.7 2.5-6.7 1.7-5.1 3-9.8 4-14.3 0.5-2.2 3.4-18.4 1.1-39.7-0.4-2.1-0.5-3.1-0.8-4.2-1.3-6.3-2.7-12-4.5-17.2-0.7-2-1.3-3.9-2-5.9-1.4-3.1-2.5-5.5-3.7-7.8-3-5.7-6-10.8-10.2-16.9-1.3-1.6-1.9-2.4-2.7-3.3-2.3-2.7-4.2-4.8-6.1-6.8-4.6-4.7-8.8-8.7-14.3-13.1-1.7-1.2-2.4-1.8-3.4-2.4-2.8-1.9-5.1-3.4-7.3-4.7-5-3-10-5.7-14-7.6-0.9-0.4-1.7-0.7-2.5-1-2.1-0.8-3-1.1-4.1-1.5-3.2-1.1-5.8-1.9-8.3-2.6-6.3-1.7-11.9-2.9-18.6-3.8-2.1-0.2-3.1-0.3-4.3-0.3-3.3-0.2-6.3-0.3-9.1-0.3-8 0-13.5-0.6-19-2.6-13.9-4.9-23.4-14.3-29.3-28.3-2.2-5.2-3-10.6-2.8-16.6 0.1-4.3 0.7-8 2-14.7 1-5.1 1.6-9.1 2.3-14.1 0.3-2.8 0.4-4 0.6-5.4 0.7-7.9 1.1-15.1 1.1-21.9 0-8.6-0.3-16.3-1.1-23.7-0.3-2.7-0.4-4.1-0.8-6.7-0.3-1.9-0.6-3.6-1.2-6.8-0.4-2-0.5-2.8-0.7-3.7-2.1-11.4-4.8-22.2-8.3-32.5-1.5-4.4-6.5-17.1-7.5-19.2-1.1-2.4-2.2-4.8-3.4-7.1-5.1-10-10.6-19.4-16.6-28.2-1.4-2.1-2.7-3.8-5-7.1-0.8-1-1.5-2-2.3-2.9-3.5-4.4-6.8-8.3-10.2-11.9-7.6-8.3-15.4-15.8-23.5-22.5-2-1.7-8.3-6.6-9.8-7.7-4.6-3.3-8.8-6.2-13-8.8-9.6-6-19.2-11.2-28.9-15.6-2-0.9-3.3-1.5-4.3-1.9-2.8-1.1-5.1-2-7.3-2.9-5.4-2-10.3-3.6-15.1-5.1-11.1-3.3-22-5.8-33.5-7.6-2-0.3-2.9-0.4-3.9-0.5-3.7-0.4-6.6-0.7-9.4-0.9-6.7-0.5-12.9-0.7-18.7-0.6-7.2 0.1-13.8 0.4-20.1 0.9-3.8 0.3-6.5 0.6-9.3 1-2.4 0.4-3.4 0.5-4.5 0.7-13 2.3-25.4 5.5-37.2 9.6-3.9 1.3-7.1 2.5-10.1 3.7-1.7 0.7-3 1.2-4.5 1.9-6.1 2.7-11.5 5.4-16.7 8.2-6.3 3.5-12.1 6.9-17.4 10.4-3.1 2-5.5 3.7-7.8 5.3-0.7 0.5-3.4 2.4-4.4 3.2-10.5 8.2-20 16.8-28.5 25.9-4.7 5-8.9 9.8-13.1 14.9-1.3 1.7-1.9 2.5-2.6 3.5-2.1 2.8-3.7 5.1-5.2 7.3-7.2 10.6-13.5 21.4-18.7 32.2-1.8 3.7-3.1 6.6-4.4 9.7-0.5 1.4-1.1 2.7-1.6 4.1-2.3 6-4.2 11.6-5.7 17-2 6.7-3.6 12.9-4.8 18.9-0.7 3.5-1.3 6.2-1.7 8.9-0.3 1.6-0.5 3-0.8 4.6-0.9 6.9-1.4 13.3-1.7 19.5-0.1 1.4-0.1 2.6-0.1 5.5v3.9c-0.1 6-0.6 10.5-2.1 14.9-4.2 12.3-11.5 22.2-21.7 27.8-2.5 1.3-5 2.4-7.7 3.3-3.2 1.1-6 1.7-11 2.7l-3.5 0.7c-10.6 2.1-20.9 5-29.1 8.3-1.9 0.8-3.8 1.7-5.6 2.6-2.7 1.3-4.8 2.4-6.7 3.4-4.8 2.6-9 5.1-12.9 7.7-2.5 1.7-4.8 3.3-6.7 4.6-1.4 1.1-2 1.6-2.8 2.2-4.1 3.4-7.8 6.7-11.1 10-4.1 4.1-7.7 8-10.9 11.9-1.1 1.3-1.6 1.9-1.9 2.4-1.7 2.3-3.1 4.2-4.3 6-5.9 8.7-11 17.8-14.4 25.6-0.3 0.8-0.6 1.5-0.9 2.2-0.7 1.9-1 2.7-1.4 3.6-1 2.8-1.8 5.1-2.5 7.2-1.6 5.3-3 10.1-4 14.8-0.7 3.4-1.3 6.2-1.7 8.9-0.3 1.7-0.4 2.4-0.4 2.7-0.6 6-1 11.1-1 16.1-0.1 6.3 0.1 11.8 0.6 17.1 0.2 1.9 1.1 8.3 1.5 10.4 2.1 10.7 5.2 20.7 9.4 30.6 0.5 1.1 1 2.2 1.6 3.3 1.3 2.7 2.4 4.7 3.5 6.7 2.6 4.7 5.2 9 7.8 12.9 1.7 2.6 3.4 4.9 4.7 6.8 0.8 1 1.5 1.9 2.3 2.8 3.5 4.2 6.8 7.9 10.2 11.3 3.3 3.3 18.5 16.3 20.7 17.8 9.1 6.3 18.4 11.7 27.9 16 1.7 0.8 3.1 1.4 4.1 1.8 2.8 1.1 5.1 2 7.3 2.7 5.3 1.8 10.3 3.3 15.1 4.4 5.9 1.4 11.4 2.5 16.2 3.2 1.3 0.1 2.6 0.3 3.9 0.4 3.2 0.3 5.7 0.5 8.1 0.6 3.7 0.2 6.7 0.2 13.5 0.2h7.5c10.2-17.5 29.2-29 50.9-29z" fill="#0C92F2" p-id="36707"></path><path d="M576 340L320 596V468l127.2-0.7 0.8-127.3z" fill="#A8C8E6" p-id="36708"></path><path d="M576 340v128h128L448 724V596H320z" fill="#61B6F2" p-id="36709"></path><path d="M704 468v128l-127 1-1 127H448z" fill="#FC830A" p-id="36710"></path></svg>